<?xml version="1.0" encoding="UTF-8" standalone="no"?>
<!DOCTYPE svg PUBLIC "-//W3C//DTD SVG 1.1//EN" "http://www.w3.org/Graphics/SVG/1.1/DTD/svg11.dtd">
<svg width="100%" height="100%" viewBox="0 0 100 100" version="1.1" xmlns="http://www.w3.org/2000/svg" xmlns:xlink="http://www.w3.org/1999/xlink" xml:space="preserve" xmlns:serif="http://www.serif.com/" style="fill-rule:evenodd;clip-rule:evenodd;stroke-linejoin:round;stroke-miterlimit:2;">
    <g transform="matrix(1,0,0,1,0,-5.5)">
        <path d="M100,32.875C100,28.759 96.658,25.417 92.542,25.417L7.458,25.417C3.342,25.417 0,28.759 0,32.875L0,92.542C0,96.658 3.342,100 7.458,100L92.542,100C96.658,100 100,96.658 100,92.542L100,32.875ZM96.366,35.044C96.366,31.227 93.267,28.128 89.449,28.128L10.551,28.128C6.733,28.128 3.634,31.227 3.634,35.044L3.634,90.373C3.634,94.19 6.733,97.289 10.551,97.289L89.449,97.289C93.267,97.289 96.366,94.19 96.366,90.373L96.366,35.044Z" style="fill:white;"/>
    </g>
    <g transform="matrix(1,0,0,1,10.1643,-1.5)">
        <g transform="matrix(1.33032,0,0,1.33032,13.4236,-10.7621)">
            <path d="M28.37,34.676C28.37,33.852 27.701,33.184 26.877,33.184L11.698,33.184C10.874,33.184 10.205,33.852 10.205,34.676L10.205,41.64C10.205,42.464 10.874,43.132 11.698,43.132L26.877,43.132C27.701,43.132 28.37,42.464 28.37,41.64L28.37,34.676Z" style="fill:white;"/>
        </g>
        <g transform="matrix(1.33032,0,0,1.33032,44.4236,-10.7621)">
            <path d="M28.37,34.676C28.37,33.852 27.701,33.184 26.877,33.184L11.698,33.184C10.874,33.184 10.205,33.852 10.205,34.676L10.205,41.64C10.205,42.464 10.874,43.132 11.698,43.132L26.877,43.132C27.701,43.132 28.37,42.464 28.37,41.64L28.37,34.676Z" style="fill:white;"/>
        </g>
        <g transform="matrix(1.33032,0,0,1.33032,13.4236,9.23786)">
            <path d="M28.37,34.676C28.37,33.852 27.701,33.184 26.877,33.184L11.698,33.184C10.874,33.184 10.205,33.852 10.205,34.676L10.205,41.64C10.205,42.464 10.874,43.132 11.698,43.132L26.877,43.132C27.701,43.132 28.37,42.464 28.37,41.64L28.37,34.676Z" style="fill:white;"/>
        </g>
        <g transform="matrix(1.33032,0,0,1.33032,44.4236,9.23786)">
            <path d="M28.37,34.676C28.37,33.852 27.701,33.184 26.877,33.184L11.698,33.184C10.874,33.184 10.205,33.852 10.205,34.676L10.205,41.64C10.205,42.464 10.874,43.132 11.698,43.132L26.877,43.132C27.701,43.132 28.37,42.464 28.37,41.64L28.37,34.676Z" style="fill:white;"/>
        </g>
        <g transform="matrix(1.33032,0,0,1.33032,14.2593,29.2379)">
            <path d="M28.37,34.676C28.37,33.852 27.701,33.184 26.877,33.184L11.698,33.184C10.874,33.184 10.205,33.852 10.205,34.676L10.205,41.64C10.205,42.464 10.874,43.132 11.698,43.132L26.877,43.132C27.701,43.132 28.37,42.464 28.37,41.64L28.37,34.676Z" style="fill:white;"/>
        </g>
        <g transform="matrix(1.33032,0,0,1.33032,-15.7407,9.23786)">
            <path d="M28.37,34.676C28.37,33.852 27.701,33.184 26.877,33.184L11.698,33.184C10.874,33.184 10.205,33.852 10.205,34.676L10.205,41.64C10.205,42.464 10.874,43.132 11.698,43.132L26.877,43.132C27.701,43.132 28.37,42.464 28.37,41.64L28.37,34.676Z" style="fill:white;"/>
        </g>
        <g transform="matrix(1.33032,0,0,1.33032,-15.7407,29.2379)">
            <path d="M28.37,34.676C28.37,33.852 27.701,33.184 26.877,33.184L11.698,33.184C10.874,33.184 10.205,33.852 10.205,34.676L10.205,41.64C10.205,42.464 10.874,43.132 11.698,43.132L26.877,43.132C27.701,43.132 28.37,42.464 28.37,41.64L28.37,34.676Z" style="fill:white;"/>
        </g>
    </g>
    <g transform="matrix(1,0,0,1,-1,-5.5)">
        <path d="M28,12.75C28,11.784 27.216,11 26.25,11L22.75,11C21.784,11 21,11.784 21,12.75L21,25.25C21,26.216 21.784,27 22.75,27L26.25,27C27.216,27 28,26.216 28,25.25L28,12.75Z" style="fill:white;"/>
        <g transform="matrix(1,0,0,1,53,0)">
            <path d="M28,12.75C28,11.784 27.216,11 26.25,11L22.75,11C21.784,11 21,11.784 21,12.75L21,25.25C21,26.216 21.784,27 22.75,27L26.25,27C27.216,27 28,26.216 28,25.25L28,12.75Z" style="fill:white;"/>
        </g>
    </g>
</svg>
