<?xml version="1.0" encoding="UTF-8" standalone="no"?>
<!DOCTYPE svg PUBLIC "-//W3C//DTD SVG 1.1//EN" "http://www.w3.org/Graphics/SVG/1.1/DTD/svg11.dtd">
<svg width="100%" height="100%" viewBox="0 0 64 64" version="1.1" xmlns="http://www.w3.org/2000/svg" xmlns:xlink="http://www.w3.org/1999/xlink" xml:space="preserve" xmlns:serif="http://www.serif.com/" style="fill-rule:evenodd;clip-rule:evenodd;stroke-linejoin:round;stroke-miterlimit:2;">
    <path d="M64,6.4C64,2.868 61.132,0 57.6,0L6.4,0C2.868,0 0,2.868 0,6.4L0,57.6C0,61.132 2.868,64 6.4,64L57.6,64C61.132,64 64,61.132 64,57.6L64,6.4Z" style="fill:rgb(249,178,73);"/>
    <g transform="matrix(0.443623,0,0,0.443623,-7.51312,33.3493)">
        <g transform="matrix(83.3333,0,0,83.3333,18.4442,26.1669)">
            <path d="M0.476,-0.698L0.476,-0.208C0.476,-0.14 0.456,-0.087 0.417,-0.05C0.378,-0.012 0.325,0.007 0.259,0.007C0.192,0.007 0.139,-0.012 0.098,-0.051C0.057,-0.09 0.036,-0.144 0.036,-0.213L0.176,-0.213C0.177,-0.183 0.184,-0.16 0.198,-0.143C0.211,-0.126 0.231,-0.118 0.257,-0.118C0.282,-0.118 0.302,-0.126 0.315,-0.142C0.328,-0.158 0.335,-0.18 0.335,-0.208L0.335,-0.698L0.476,-0.698Z" style="fill-rule:nonzero;"/>
        </g>
        <g transform="matrix(83.3333,0,0,83.3333,65.9442,26.1669)">
            <path d="M0.209,-0.585L0.209,-0.41L0.444,-0.41L0.444,-0.299L0.209,-0.299L0.209,-0.114L0.474,-0.114L0.474,-0L0.069,-0L0.069,-0.699L0.474,-0.699L0.474,-0.585L0.209,-0.585Z" style="fill-rule:nonzero;"/>
        </g>
        <g transform="matrix(83.3333,0,0,83.3333,110.277,26.1669)">
            <path d="M0.31,0.007C0.261,0.007 0.218,-0.001 0.179,-0.018C0.14,-0.035 0.109,-0.059 0.086,-0.09C0.063,-0.121 0.052,-0.158 0.051,-0.201L0.201,-0.201C0.203,-0.172 0.213,-0.15 0.232,-0.133C0.25,-0.116 0.275,-0.108 0.307,-0.108C0.34,-0.108 0.365,-0.116 0.384,-0.132C0.403,-0.147 0.412,-0.168 0.412,-0.193C0.412,-0.214 0.406,-0.231 0.393,-0.244C0.38,-0.257 0.365,-0.268 0.345,-0.276C0.327,-0.283 0.3,-0.292 0.267,-0.301C0.222,-0.314 0.185,-0.328 0.157,-0.341C0.128,-0.354 0.104,-0.373 0.084,-0.4C0.063,-0.426 0.053,-0.461 0.053,-0.505C0.053,-0.546 0.063,-0.582 0.084,-0.613C0.105,-0.644 0.134,-0.667 0.171,-0.684C0.208,-0.7 0.251,-0.708 0.299,-0.708C0.371,-0.708 0.43,-0.691 0.474,-0.656C0.52,-0.621 0.544,-0.572 0.549,-0.509L0.395,-0.509C0.394,-0.533 0.384,-0.553 0.365,-0.569C0.345,-0.584 0.32,-0.592 0.289,-0.592C0.262,-0.592 0.24,-0.585 0.224,-0.571C0.207,-0.557 0.199,-0.537 0.199,-0.51C0.199,-0.491 0.205,-0.476 0.218,-0.464C0.23,-0.451 0.245,-0.441 0.264,-0.434C0.282,-0.426 0.308,-0.417 0.341,-0.407C0.386,-0.394 0.423,-0.38 0.452,-0.367C0.481,-0.354 0.505,-0.334 0.526,-0.307C0.547,-0.28 0.557,-0.245 0.557,-0.202C0.557,-0.165 0.547,-0.13 0.528,-0.098C0.509,-0.066 0.48,-0.041 0.443,-0.021C0.406,-0.003 0.361,0.007 0.31,0.007Z" style="fill-rule:nonzero;"/>
        </g>
    </g>
</svg>
