<?xml version="1.0" encoding="UTF-8" standalone="no"?>
<!DOCTYPE svg PUBLIC "-//W3C//DTD SVG 1.1//EN" "http://www.w3.org/Graphics/SVG/1.1/DTD/svg11.dtd">
<svg width="100%" height="100%" viewBox="0 0 3610 1020" version="1.1" xmlns="http://www.w3.org/2000/svg" xmlns:xlink="http://www.w3.org/1999/xlink" xml:space="preserve" xmlns:serif="http://www.serif.com/" style="fill-rule:evenodd;clip-rule:evenodd;stroke-linejoin:round;stroke-miterlimit:2;">
    <g id="JES-Semibold-schmal" serif:id="JES Semibold schmal" transform="matrix(14.128,0,0,14.128,-7289.92,-20841.7)">
        <path d="M606.6,1476.2L606.6,1525.2C606.6,1532 604.633,1537.28 600.7,1541.05C596.767,1544.82 591.5,1546.7 584.9,1546.7C578.233,1546.7 572.85,1544.77 568.75,1540.9C564.65,1537.03 562.6,1531.63 562.6,1524.7L576.6,1524.7C576.667,1527.7 577.383,1530.03 578.75,1531.7C580.117,1533.37 582.1,1534.2 584.7,1534.2C587.233,1534.2 589.167,1533.4 590.5,1531.8C591.833,1530.2 592.5,1528 592.5,1525.2L592.5,1476.2L606.6,1476.2Z" style="fill:rgb(249,180,41);fill-rule:nonzero;"/>
        <path d="M636.9,1487.5L636.9,1505L660.4,1505L660.4,1516.1L636.9,1516.1L636.9,1534.6L663.4,1534.6L663.4,1546L622.9,1546L622.9,1476.1L663.4,1476.1L663.4,1487.5L636.9,1487.5Z" style="fill:rgb(249,180,41);fill-rule:nonzero;"/>
        <path d="M700.2,1546.7C695.333,1546.7 690.95,1545.87 687.05,1544.2C683.15,1542.53 680.067,1540.13 677.8,1537C675.533,1533.87 674.367,1530.17 674.3,1525.9L689.3,1525.9C689.5,1528.77 690.517,1531.03 692.35,1532.7C694.183,1534.37 696.7,1535.2 699.9,1535.2C703.167,1535.2 705.733,1534.42 707.6,1532.85C709.467,1531.28 710.4,1529.23 710.4,1526.7C710.4,1524.63 709.767,1522.93 708.5,1521.6C707.233,1520.27 705.65,1519.22 703.75,1518.45C701.85,1517.68 699.233,1516.83 695.9,1515.9C691.367,1514.57 687.683,1513.25 684.85,1511.95C682.017,1510.65 679.583,1508.68 677.55,1506.05C675.517,1503.42 674.5,1499.9 674.5,1495.5C674.5,1491.37 675.533,1487.77 677.6,1484.7C679.667,1481.63 682.567,1479.28 686.3,1477.65C690.033,1476.02 694.3,1475.2 699.1,1475.2C706.3,1475.2 712.15,1476.95 716.65,1480.45C721.15,1483.95 723.633,1488.83 724.1,1495.1L708.7,1495.1C708.567,1492.7 707.55,1490.72 705.65,1489.15C703.75,1487.58 701.233,1486.8 698.1,1486.8C695.367,1486.8 693.183,1487.5 691.55,1488.9C689.917,1490.3 689.1,1492.33 689.1,1495C689.1,1496.87 689.717,1498.42 690.95,1499.65C692.183,1500.88 693.717,1501.88 695.55,1502.65C697.383,1503.42 699.967,1504.3 703.3,1505.3C707.833,1506.63 711.533,1507.97 714.4,1509.3C717.267,1510.63 719.733,1512.63 721.8,1515.3C723.867,1517.97 724.9,1521.47 724.9,1525.8C724.9,1529.53 723.933,1533 722,1536.2C720.067,1539.4 717.233,1541.95 713.5,1543.85C709.767,1545.75 705.333,1546.7 700.2,1546.7Z" style="fill:rgb(249,180,41);fill-rule:nonzero;"/>
    </g>
    <g transform="matrix(3.34395,0,0,1.39344,-7755.24,-162.098)">
        <rect x="3241" y="412" width="157" height="122" style="fill:rgb(249,180,41);"/>
    </g>
    <g transform="matrix(3.34395,0,0,1.39344,-10835.2,-162.098)">
        <rect x="3241" y="412" width="157" height="122" style="fill:rgb(249,180,41);"/>
    </g>
</svg>
