<svg data-name="Ebene 1" xmlns="http://www.w3.org/2000/svg" width="286" height="49" viewBox="0 0 286 49"><title>Zeichenfläche 32</title><path d="M19.16 39.38A3.34 3.34 0 1 1 22.5 36a3.34 3.34 0 0 1-3.34 3.38zM38.2 47.71H25.5V.33h12.7zM63.7 47.71H51V.33h12.7zM12.7 47.71H0V.33h12.7z" fill="#0093b1"/><path d="M57.35 39.39A3.35 3.35 0 1 1 60.7 36a3.35 3.35 0 0 1-3.35 3.39zM6.35 39.39A3.35 3.35 0 1 1 9.7 36a3.35 3.35 0 0 1-3.35 3.39zM31.84 39.39A3.35 3.35 0 1 1 35.19 36a3.35 3.35 0 0 1-3.35 3.39z" fill="#fff"/><path d="M44.54 39.38A3.34 3.34 0 1 1 47.88 36a3.34 3.34 0 0 1-3.34 3.38z" fill="#0093b1"/><g fill="#231f20"><path d="M84.38 21.9a9.84 9.84 0 0 1-7.56-3.43l2.28-2.21a7.77 7.77 0 0 0 5.52 2.52c3 0 4.4-1 4.4-3.09 0-1.64-1.24-2.46-4.8-3.52-4.49-1.33-6.65-2.46-6.65-6.25S80.68 0 84.59 0a9.52 9.52 0 0 1 7 2.88L89.3 5.16a6.44 6.44 0 0 0-4.95-2c-2.49 0-3.55 1.21-3.55 2.64s1 2.21 4.64 3.31c4.19 1.27 6.8 2.61 6.8 6.4s-2.43 6.39-7.86 6.39zM103.28 3.46v18.11h-3.19V3.46H93.9V.33h15.57v3.13zM120.46 21.9c-5.25 0-8-3.4-8-9.25V.33h3.19v12.23c0 4 1.67 6.16 4.86 6.16 3.34 0 4.92-2.06 4.92-5.95V.33h3.19v12.38c.01 5.95-2.88 9.19-8.16 9.19zM139.65 21.57h-5.8V.33h5.8C145.36.33 150 3.46 150 11s-4.79 10.57-10.35 10.57zm0-18.14H137v15h2.61c5 0 7.1-3.06 7.1-7.52s-2.02-7.48-7.06-7.48zM154.32 21.57V.33h3.19v21.24zM163.86 21.57V.33h13.69v3.1H167v5.25h6.1v3.09H167v6.7h11v3.09zM195.39 21.57l-8.47-13.32c-.52-.79-1.25-2.06-1.58-2.61v15.91h-3.1V.33h3.25l8.08 13c.55.88 1.46 2.46 1.76 3v-16h3.1v21.24zM221.37 21.57h-3.22l-3.3-13.71a66.7 66.7 0 0 1-.61-2.82c-.09.52-.43 2.09-.61 2.82l-3.46 13.71H207L202.67.33h3.22l2.55 13.41c.12.64.39 2.09.49 2.79.12-.7.43-2.12.58-2.76L212.9.33h2.73l3.46 13.74c.15.58.39 1.7.52 2.46.15-.79.33-2 .42-2.49L222.62.33h3.1zM230 21.57V.33h13.69v3.1h-10.5v5.25h6.1v3.09h-6.1v6.7h11v3.09zM259.83 12.89l4.34 8.68h-3.67l-4.22-8.4h-4.8v8.4h-3.13V.33h9.32c3.7 0 6.83 2 6.83 6.34a5.89 5.89 0 0 1-4.67 6.22zm-2.15-9.56h-6.19v6.83h6.19c2.12 0 3.61-1.09 3.61-3.4s-1.46-3.42-3.62-3.42zM282.26 21.57l-6.1-10.89-3.95 4.76v6.13h-3.1V.33h3.1v7.28c0 .79 0 3.09-.06 3.76.36-.55 1.76-2.31 2.46-3.19l6.28-7.85h3.61L278.28 8l7.59 13.53zM85.23 47.72v-1.27A5.1 5.1 0 0 1 81.74 48c-2.88 0-5.14-2.09-5.14-7.18 0-4.58 2.5-6.74 5.27-6.74a4.75 4.75 0 0 1 3.36 1.53v-5.1l2.6-1.35v18.56zm0-9.47a4.28 4.28 0 0 0-3.13-1.76c-1.88 0-2.9 1.43-2.9 4.25 0 3.36 1.07 4.84 3 4.84a4.11 4.11 0 0 0 3-1.71zM102.52 42h-8.83c.28 2.57 1.73 3.67 3.36 3.67a4.69 4.69 0 0 0 2.9-1.07l1.55 1.68A6.22 6.22 0 0 1 96.89 48c-3.13 0-5.78-2.52-5.78-6.95s2.39-7 5.86-7c3.79 0 5.63 3.08 5.63 6.69 0 .52-.05.95-.08 1.26zm-5.73-5.52c-1.76 0-2.83 1.22-3.06 3.36H100c-.18-1.84-1-3.4-3.21-3.4zM113.07 37.13a3.92 3.92 0 0 0-2-.48c-1.66 0-2.62 1.17-2.62 3.44v7.64h-2.62V34.36h2.62v1.27a3.71 3.71 0 0 1 3.06-1.55 3.85 3.85 0 0 1 2.27.56zM128.81 48a8.26 8.26 0 0 1-6.34-2.88l1.91-1.86a6.52 6.52 0 0 0 4.62 2.12c2.5 0 3.69-.86 3.69-2.6 0-1.37-1-2.06-4-3-3.77-1.12-5.58-2.06-5.58-5.24s2.6-5 5.88-5a8 8 0 0 1 5.83 2.46l-1.88 2a5.4 5.4 0 0 0-4.15-1.71c-2.09 0-3 1-3 2.21s.81 1.86 3.9 2.77c3.52 1.07 5.71 2.19 5.71 5.37S133.37 48 128.81 48zM144.81 47.39a5.33 5.33 0 0 1-2.57.61c-1.86 0-3-1.15-3-3.54v-7.71h-1.91v-2.39h1.91v-3.82l2.57-1.37v5.19h3.31v2.39h-3.31V44c0 1.25.41 1.6 1.38 1.6a4.2 4.2 0 0 0 1.94-.53zM158.93 42h-8.84c.28 2.57 1.73 3.67 3.36 3.67a4.69 4.69 0 0 0 2.9-1.07l1.55 1.68a6.22 6.22 0 0 1-4.6 1.72c-3.13 0-5.78-2.52-5.78-6.95s2.39-7 5.86-7c3.8 0 5.63 3.08 5.63 6.69-.01.52-.01.95-.08 1.26zm-5.73-5.52c-1.76 0-2.83 1.22-3.06 3.36h6.21c-.12-1.84-.99-3.4-3.15-3.4zM170.2 47.72v-1.27a4.1 4.1 0 0 1-3.37 1.55c-3.11 0-4.76-2-4.76-6v-7.64h2.62v7.56c0 2.7 1 3.67 2.75 3.67s2.75-1.25 2.75-3.41v-7.82h2.62v13.36zM187.52 42h-8.84c.28 2.57 1.73 3.67 3.36 3.67a4.69 4.69 0 0 0 2.9-1.07l1.55 1.68a6.22 6.22 0 0 1-4.6 1.72c-3.13 0-5.78-2.52-5.78-6.95s2.39-7 5.86-7c3.8 0 5.63 3.08 5.63 6.69 0 .52-.06.95-.08 1.26zm-5.73-5.52c-1.76 0-2.83 1.22-3.06 3.36h6.21c-.12-1.84-.94-3.4-3.15-3.4zM198.07 37.13a3.92 3.92 0 0 0-2-.48c-1.66 0-2.62 1.17-2.62 3.44v7.64h-2.62V34.36h2.62v1.27a3.71 3.71 0 0 1 3.06-1.55 3.85 3.85 0 0 1 2.27.56zM207.39 48a4.75 4.75 0 0 1-3.39-1.53v1.25h-2.6V30.51l2.6-1.35v6.47a5.1 5.1 0 0 1 3.49-1.55c2.88 0 5.15 2.09 5.15 7.18.02 4.58-2.48 6.74-5.25 6.74zM207 36.5a4.11 4.11 0 0 0-3 1.71v5.63a4.29 4.29 0 0 0 3.13 1.76c1.88 0 2.9-1.43 2.9-4.25C210 38 209 36.5 207 36.5zM226.79 42H218c.28 2.57 1.73 3.67 3.36 3.67a4.69 4.69 0 0 0 2.9-1.07l1.55 1.68a6.22 6.22 0 0 1-4.65 1.72c-3.13 0-5.78-2.52-5.78-6.95s2.39-7 5.86-7c3.8 0 5.63 3.08 5.63 6.69-.01.52-.06.95-.08 1.26zm-5.73-5.52c-1.76 0-2.83 1.22-3.06 3.36h6.21c-.12-1.84-.99-3.4-3.15-3.4zM237.34 37.13a3.91 3.91 0 0 0-2-.48c-1.66 0-2.62 1.17-2.62 3.44v7.64h-2.62V34.36h2.62v1.27a3.71 3.71 0 0 1 3.06-1.55 3.85 3.85 0 0 1 2.27.56zM248 47.72V46.4a5.26 5.26 0 0 1-3.67 1.6c-2.16 0-4.64-1.22-4.64-4.5 0-3 2.29-4.33 5.32-4.33a7.39 7.39 0 0 1 3 .51v-1c0-1.45-.89-2.27-2.52-2.27a6.75 6.75 0 0 0-3.49.84l-1-2a8.3 8.3 0 0 1 4.58-1.2c3 0 5 1.45 5 4.48v9.16zm0-5.7a6.61 6.61 0 0 0-3.06-.59c-1.68 0-2.75.76-2.75 2s.84 2.21 2.57 2.21a4.2 4.2 0 0 0 3.24-1.71zM260.65 47.39a5.33 5.33 0 0 1-2.57.61c-1.86 0-3-1.15-3-3.54v-7.71h-1.91v-2.39h1.91v-3.82l2.57-1.37v5.19H261v2.39h-3.31V44c0 1.25.41 1.6 1.38 1.6a4.2 4.2 0 0 0 1.94-.53zM274.76 42h-8.84c.28 2.57 1.73 3.67 3.36 3.67a4.69 4.69 0 0 0 2.9-1.07l1.55 1.68a6.22 6.22 0 0 1-4.59 1.72c-3.13 0-5.78-2.52-5.78-6.95s2.39-7 5.86-7c3.8 0 5.63 3.08 5.63 6.69-.01.52-.06.95-.09 1.26zM269 36.44c-1.76 0-2.83 1.22-3.06 3.36h6.21c-.09-1.8-.95-3.36-3.15-3.36zM285.31 37.13a3.91 3.91 0 0 0-2-.48c-1.66 0-2.62 1.17-2.62 3.44v7.64h-2.62V34.36h2.62v1.27a3.71 3.71 0 0 1 3.06-1.55 3.85 3.85 0 0 1 2.27.56z"/></g></svg>